<!-- icon666.com - MILLIONS vector ICONS FREE --><svg id="Layer_1" viewBox="0 0 512 512" xmlns="http://www.w3.org/2000/svg" data-name="Layer 1"><path d="m256 0c141.385 0 256 114.615 256 256s-114.615 256-256 256-256-114.615-256-256 114.615-256 256-256zm45.868 115.256v119.763a8.171 8.171 0 0 0 16.342 0v-119.763a8.171 8.171 0 0 0 -16.342 0zm-61.321 86.77 50.927 24.9v-103.569l-50.927 24.893zm-51.632-47.132v40.494a4.679 4.679 0 0 0 4.078 4.641h.092a5 5 0 0 1 .644.047h36.424v-49.866h-36.578a4.671 4.671 0 0 0 -4.66 4.684zm29.4 58.2a5.169 5.169 0 0 1 -.368-1.923v-.695h-19.681v7.83l15.024 41c.061.141.092.175.246.175h22.872a.275.275 0 0 0 .123-.018s.03-.028.092-.1a1.378 1.378 0 0 1 .061-.126.433.433 0 0 0 -.031-.129l-18.335-46.018zm-39.4-14.19h-60.979a17.727 17.727 0 0 0 -5 .709l143.064 118.459 143.061-118.459a17.884 17.884 0 0 0 -5-.709h-65.43v36.115a18.579 18.579 0 0 1 -36.792 3.658l-57.7-28.2h-5.672l17.844 44.794a10.689 10.689 0 0 1 -9.9 14.613h-22.875a10.514 10.514 0 0 1 -10-7l-15.361-41.867a5.86 5.86 0 0 1 -.306-1.787v-9.885a15.117 15.117 0 0 1 -8.953-10.44zm-78.915 17.921v170.159a17.781 17.781 0 0 0 2.851 9.7l115.9-95.952-114.827-95.073a17.81 17.81 0 0 0 -3.924 11.166zm17.936 188.086h276.128a17.861 17.861 0 0 0 6.99-1.419l-115.954-96.007-25.785 21.346a5.215 5.215 0 0 1 -6.622 0l-25.793-21.346-115.954 96.007a17.861 17.861 0 0 0 6.99 1.419zm294.064-17.927v-170.159a17.81 17.81 0 0 0 -3.924-11.166l-114.824 95.071 115.9 95.952a18.044 18.044 0 0 0 2.848-9.698z" fill-rule="evenodd"></path></svg>